<svg id="Ebene_1" data-name="Ebene 1" xmlns="http://www.w3.org/2000/svg" viewBox="0 0 564 203"><defs><style>.cls-1{fill:#8a4168;}.cls-2{fill:#fff;}.cls-3{fill:none;}.cls-4{fill:#ad7393;}</style></defs><title>Zeichenfläche 2_wo</title><rect class="cls-1" width="564" height="203"/><path class="cls-2" d="M32.43,29.32h50c25.6,0,43.2,14.2,43.2,39,0,25.2-17.4,40-44.6,40H43.43v61h-11Zm11,69H82c22.6,0,32-12,32-29.6,0-18.8-12.4-29.4-31.2-29.4H43.43Z"/><path class="cls-2" d="M224,100.52h-71.4v58.8h78.2l-1.6,10h-87.4v-140h85.8v10h-75v51.2H224Z"/><path class="cls-1" d="M246.23,29.32h46.4c38.4,0,65,26.8,65,68.8,0,41.8-26,71.2-65.2,71.2h-46.2Zm10.8,130h33.8c37,0,55.2-26,55.2-60.6,0-30.8-16.4-59.4-55.2-59.4H257Z"/><path class="cls-1" d="M387,29.32v140h-10.8v-140Z"/><path class="cls-2" d="M436.63,120.92l-17.8,48.4h-11l51.4-140H472l53.6,140h-11.8l-18.2-48.4Zm55.4-10c-15.6-41.6-23.6-61.6-26.4-71h-.2c-3.4,10.6-12.4,35.4-25,71Z"/><path class="cls-3" d="M394.7,27.41h0Z"/><path class="cls-3" d="M367.7,171.43v0Z"/><path class="cls-3" d="M394.65,27.26h0Z"/><path class="cls-3" d="M394.68,27.33h0Z"/><path class="cls-3" d="M380.7,44.62l-1.46-.75Z"/><path class="cls-3" d="M380.54,157.44l-1.3-.67,1.3.67Z"/><path class="cls-3" d="M390.18,115.93l-14.63,0h-7.28a12.51,12.51,0,0,0,1.43,1.76H374l14.62,0h6.07a10.28,10.28,0,0,0,1.26-1.76Z"/><path class="cls-3" d="M375,91.25h-3c.92.63,1.9,1.21,2.88,1.75l14.13,0h.62a26.5,26.5,0,0,0,2.74-1.74h-1.64l-15.76,0Z"/><path class="cls-3" d="M382.32,96.49c1.3-.55,2.6-1.11,3.88-1.7h-7.72C379.75,95.37,381,95.93,382.32,96.49Z"/><path class="cls-3" d="M375.55,87.73h-6.24a12.51,12.51,0,0,0,1.44,1.75H374l14.63,0h5a10.92,10.92,0,0,0,1.27-1.76h-4.67l-14.63,0Z"/><path class="cls-3" d="M382.32,125.2c1.69-.71,3.38-1.44,5-2.23h-10c1.62.78,3.29,1.51,4.94,2.24Z"/><path class="cls-3" d="M375.23,119.43h-4l.1.06a30.47,30.47,0,0,0,2.65,1.69l14.91,0h1.77c.61-.36,1.21-.73,1.79-1.13.29-.2.57-.41.84-.62h-2.73l-15.32,0Z"/><path class="cls-3" d="M390.18,84.23l-14.63,0h-7.66a10.24,10.24,0,0,0,.31,1.27c.06.16.12.33.19.49H374l14.62,0,7.06,0a9,9,0,0,0,.36-1.76Z"/><path class="cls-3" d="M390.18,112.41l-14.63,0-7.58,0a8.72,8.72,0,0,0-.21,1.76H374l14.62,0H396a8.6,8.6,0,0,0-.32-1.76Z"/><path class="cls-3" d="M373.47,105.33a20.47,20.47,0,0,0-2.25,1.75H374l14.62,0h3.37a22.08,22.08,0,0,0-2.4-1.76l-14,0Z"/><path class="cls-3" d="M376.44,103.57l10.05,0c-1.64-.88-3.32-1.68-5-2.46-1.44.65-2.88,1.31-4.28,2l-.76.4Z"/><path class="cls-3" d="M375.55,133.52h-3.08a20.23,20.23,0,0,0-2.23,1.75H374l14.62,0h4.33a23,23,0,0,0-2.37-1.75h-.35l-14.63,0Z"/><path class="cls-3" d="M390.18,137.07l-14.63,0-6.94,0a11.37,11.37,0,0,0-.77,1.18,2.67,2.67,0,0,0-.07.47v.12H374l14.62,0h7.36a11.13,11.13,0,0,0-1.23-1.76Z"/><path class="cls-3" d="M387.49,131.77c-1.72-.9-3.49-1.71-5.21-2.51l-.8-.38c-2,.9-4.1,1.81-6.08,2.87l12.09,0Z"/><path class="cls-3" d="M375.55,108.86H369.6a9.47,9.47,0,0,0-1,1.76H374l14.62,0h6.36a10.39,10.39,0,0,0-1.21-1.76h-3.54l-14.63,0Z"/><path class="cls-3" d="M381.51,68.36l.81.37c1.52-.68,3.09-1.37,4.63-2.13h-9.17c1.24.61,2.5,1.19,3.73,1.77Z"/><path class="cls-3" d="M388.58,33.13h4.84a11,11,0,0,0,1.31-1.76h-4.55l-14.63,0h-6.14a14.38,14.38,0,0,0,1.49,1.75H374Z"/><path class="cls-3" d="M390.18,59.57l-14.63,0h-7.22a11.52,11.52,0,0,0,1.3,1.6l.16.16H374l14.62,0h6a10.33,10.33,0,0,0,1.28-1.75Z"/><path class="cls-3" d="M375.55,63.07h-3.72a29.93,29.93,0,0,0,2.62,1.76l14.12,0h1.61a21,21,0,0,0,2.49-1.75h-2.49l-14.63,0Z"/><path class="cls-3" d="M389.44,36.65l.43-.24a25.46,25.46,0,0,0,2.27-1.5H390.7l-15.59,0h-2.77c.5.35,1,.68,1.54,1s.86.51,1.3.75l13.81,0Z"/><path class="cls-3" d="M381.47,72.42c-2.1.92-4.2,1.87-6.2,3l12.36,0c-2-1.08-4.08-2-6.16-3Z"/><path class="cls-3" d="M378.68,38.41c1.2.56,2.42,1.1,3.64,1.63,1.24-.52,2.47-1,3.68-1.62Z"/><path class="cls-3" d="M374,82.43l14.63,0H396a10.92,10.92,0,0,0-1.21-1.75h-4.59l-14.63,0h-7a9.55,9.55,0,0,0-.75,1.16c0,.2,0,.4,0,.6,2.08,0,4.13,0,6.19,0Z"/><path class="cls-3" d="M376.2,47.2l10.51,0c-1.06-.56-2.12-1.07-3.15-1.57l-2.08-1-1.25.57c-1.32.61-2.69,1.25-4,2Z"/><path class="cls-3" d="M388.58,78.93H393c-.33-.28-.67-.56-1-.82s-.89-.63-1.35-.94h-.45l-14.63,0h-3.17l-.57.39a19.81,19.81,0,0,0-1.67,1.36H374l14.63,0Z"/><path class="cls-3" d="M390.18,56l-14.63,0L368,56a8.72,8.72,0,0,0-.19,1.77q3.11,0,6.19,0l14.63,0H396a8.27,8.27,0,0,0-.33-1.76Z"/><path class="cls-3" d="M373.28,49a16.12,16.12,0,0,0-2.17,1.75H374l14.63,0h3.5A22.57,22.57,0,0,0,389.75,49l-14.2,0Z"/><path class="cls-3" d="M375.55,52.5h-6l-.16.22a9.64,9.64,0,0,0-.86,1.53H374l14.62,0H395c-.17-.32-.35-.63-.55-.94s-.4-.55-.62-.82h-3.61l-14.63,0Z"/><path class="cls-3" d="M390.18,140.59l-14.63,0h-7.68a9.22,9.22,0,0,0,.49,1.76H374l14.63,0h7.07a9.46,9.46,0,0,0,.35-1.76Z"/><path class="cls-3" d="M373.63,161.7a20.35,20.35,0,0,0-2.24,1.75H374l14.62,0h3.21a23.36,23.36,0,0,0-2.39-1.76h0l-13.84,0Z"/><path class="cls-3" d="M386.35,160c-1.59-.85-3.23-1.62-4.87-2.38-1.66.74-3.3,1.51-4.89,2.37Z"/><path class="cls-3" d="M380.11,152l2.2,1,1.33-.56,2.73-1.22-8,0,1.78.82Z"/><path class="cls-3" d="M375.55,165.23h-5.8a9.77,9.77,0,0,0-1.1,1.76H374l14.62,0h6.3a11.19,11.19,0,0,0-1.28-1.75h-3.41l-14.63,0Z"/><path class="cls-3" d="M375.55,144.09h-6.28a2,2,0,0,0,.12.19,11.19,11.19,0,0,0,1.27,1.57H374l14.62,0h5.08a12,12,0,0,0,.76-1c.17-.25.33-.52.48-.78h-4.71l-14.63,0Z"/><path class="cls-3" d="M375.15,147.62h-3.1a29.08,29.08,0,0,0,2.78,1.76l14.12,0h.85a23.88,23.88,0,0,0,2.62-1.75h-1.77l-15.5,0Z"/><path class="cls-2" d="M390.67,168l-14.63,0h-7.79a6.91,6.91,0,0,0-.24.81h7.54l14.63,0h5.51a7.18,7.18,0,0,0-.32-.81Z"/><path class="cls-4" d="M374,167h-5.3a7.94,7.94,0,0,0-.4,1H376l14.63,0h4.7a8.74,8.74,0,0,0-.5-1h-6.29L374,167Z"/><path class="cls-2" d="M376,164.42h-5.61a10.41,10.41,0,0,0-.68.81h5.8l14.63,0h3.41c-.24-.28-.5-.55-.76-.81h-2.16l-14.63,0Z"/><path class="cls-4" d="M374,163.46h-2.56c-.34.31-.65.63-1,1H376l14.63,0h2.16q-.51-.51-1.05-1h-3.2l-14.63,0Z"/><path class="cls-2" d="M374.91,160.89l-.51.31-.77.5h1.92l13.84,0c-.44-.28-.88-.55-1.33-.81l-12,0Z"/><path class="cls-4" d="M374.91,160.89H376l12,0c-.56-.34-1.13-.66-1.71-1h-9.76c-.57.3-1.13.62-1.68.95Z"/><path class="cls-2" d="M378.33,151.14l8,0c.56-.26,1.12-.53,1.67-.81l-11.39,0q.84.42,1.68.81Z"/><path class="cls-4" d="M374.82,149.37q.9.49,1.83,1l11.39,0c.6-.31,1.19-.63,1.76-1H389l-14.13,0Z"/><path class="cls-2" d="M376,146.8h-4.4q.48.42,1,.81h2.92l14.63,0h1.66c.32-.26.62-.53.91-.81h-2.08l-14.63,0Z"/><path class="cls-4" d="M374,145.84h-3.29c.31.33.64.65,1,1H376l14.63,0h2.08a11.62,11.62,0,0,0,.9-1h-5.07l-14.63,0Z"/><path class="cls-2" d="M376,143.28h-7.25q.22.42.48.81h6.28l14.63,0h4.71c.15-.27.28-.54.4-.81h-4.62l-14.63,0Z"/><path class="cls-4" d="M374,142.32h-5.59c.13.32.27.64.43,1H376l14.63,0h4.62a7.89,7.89,0,0,0,.36-1h-7.08l-14.62,0Z"/><path class="cls-2" d="M390.67,139.78l-14.63,0-7.89,0a1.18,1.18,0,0,1-.37-.11,7.32,7.32,0,0,0,.09.93h7.68l14.63,0H396c0-.25,0-.5,0-.76a.43.43,0,0,1,0-.05Z"/><path class="cls-4" d="M374,138.79h-6.18c0,.12,0,.25,0,.37s0,.31,0,.46a1,1,0,0,0,.37.11l7.89,0,14.63,0H396c0-.14,0-.29,0-.44l0-.39a.3.3,0,0,0,0-.08.05.05,0,0,1,0,0h-7.35l-14.63,0Z"/><path class="cls-2" d="M376,136.23h-6.75c-.24.27-.47.53-.68.81l6.94,0,14.63,0h4.52c-.17-.2-.35-.39-.53-.58s-.16-.15-.23-.23h-3.27l-14.63,0Z"/><path class="cls-4" d="M374,135.27h-3.71c-.21.19-.41.39-.61.59l-.34.36,6.75,0,14.63,0h3.27c-.34-.33-.68-.65-1-1h-4.32l-14.63,0Z"/><path class="cls-2" d="M373.71,132.71c-.42.26-.84.53-1.24.81h3.08l14.63,0h.35c-.43-.28-.86-.55-1.31-.82l-13.18,0Z"/><path class="cls-4" d="M373.71,132.71H376l13.18,0c-.57-.33-1.15-.65-1.73-1l-12.09,0c-.57.31-1.14.62-1.69,1Z"/><path class="cls-2" d="M375.74,122.14c.54.28,1.09.55,1.64.82h10c.54-.26,1.07-.53,1.6-.81l-13.2,0Z"/><path class="cls-4" d="M374,121.18c.58.34,1.17.65,1.77,1h0l13.2,0c.58-.3,1.15-.62,1.71-1h-1.78l-14.9,0Z"/><path class="cls-2" d="M376,118.62h-5.33c.33.28.67.55,1,.82h3.83l14.63,0h2.6c.33-.26.64-.53.94-.81h-3.05l-14.63,0Z"/><path class="cls-4" d="M374,117.66H369.7c.32.33.66.65,1,1H376l14.63,0h3.05c.33-.31.63-.63.92-1h-6.06l-14.63,0Z"/><path class="cls-2" d="M390.67,115.12l-14.63,0h-7.89a1.13,1.13,0,0,1-.36-.11.66.66,0,0,0,0,.14,7.68,7.68,0,0,0,.47.78h7.28l14.63,0h5.72c0-.06.07-.1.1-.16l0-.63v0Z"/><path class="cls-4" d="M374,114.13h-6.19v.35l0,.49a1.09,1.09,0,0,0,.36.1l7.89,0,14.63,0H396c0-.33,0-.65,0-1h-7.41l-14.63,0Z"/><path class="cls-2" d="M390.67,111.6l-14.63,0-7.85,0a8.12,8.12,0,0,0-.22.81l7.58,0,14.63,0q2.73,0,5.49,0c0-.08-.05-.17-.08-.25s-.13-.37-.21-.56Z"/><path class="cls-4" d="M374,110.61h-5.39c-.13.29-.26.59-.36.89,0,0,0,0,0,.06H376l14.63,0h4.71a7.53,7.53,0,0,0-.45-.95h-6.36l-14.62,0Z"/><path class="cls-2" d="M376,108.05h-5.76a10.41,10.41,0,0,0-.68.81h5.95l14.63,0h3.54c-.23-.28-.48-.55-.74-.81h-2.31l-14.63,0Z"/><path class="cls-4" d="M374,107.09h-2.73c-.33.31-.65.63-.94,1H376l14.63,0H393c-.33-.33-.68-.66-1-1h-3.36l-14.63,0Z"/><path class="cls-2" d="M374.75,104.53c-.43.25-.86.52-1.28.8h2.08l14,0c-.44-.28-.88-.55-1.33-.81l-12.17,0Z"/><path class="cls-4" d="M374.75,104.53H376l12.17,0c-.54-.32-1.08-.62-1.62-.91l-.1-.06H376.44c-.57.3-1.13.62-1.69,1Z"/><path class="cls-2" d="M376.81,94c.55.28,1.11.54,1.67.8l7.72,0,.73-.34.95-.47-11.09,0Z"/><path class="cls-4" d="M374.94,93c.62.33,1.24.66,1.85,1l11.09,0c.61-.3,1.22-.62,1.81-1h-.62l-14.13,0Z"/><path class="cls-2" d="M376,90.44h-4.27c.33.28.68.55,1,.81h2.75l14.63,0h1.51c.33-.26.65-.53.95-.81h-2l-14.63,0Z"/><path class="cls-4" d="M374,89.47h-3.2c.32.33.67.65,1,1H376l14.63,0h2c.33-.3.64-.62.94-.95h-5l-14.63,0Z"/><path class="cls-2" d="M376,86.91h-7.22c.15.28.32.55.49.81h6.24l14.63,0h4.67q.22-.39.42-.81h-4.6l-14.63,0Z"/><path class="cls-4" d="M374,86h-5.56a9.14,9.14,0,0,0,.43,1H376l14.63,0h4.6a7.5,7.5,0,0,0,.32-.83.56.56,0,0,1,0-.12h-7.05L374,86Z"/><path class="cls-2" d="M390.67,83.42l-14.63,0h-7.89a1.13,1.13,0,0,1-.36-.11,8.36,8.36,0,0,0,.1.92h7.66l14.63,0H396a7.32,7.32,0,0,0,0-.81Z"/><path class="cls-4" d="M368.15,83.38H376l14.63,0H396v0c0-.09,0-.17,0-.26l0-.63,0,0h-7.4l-14.63,0q-3.07,0-6.19,0v0c0,.28,0,.54,0,.8a1.13,1.13,0,0,0,.36.11Z"/><path class="cls-2" d="M390.18,80.7h4.59c-.23-.28-.48-.54-.74-.81h-3.36l-14.63,0h-6.83a10.15,10.15,0,0,0-.66.81h7l14.63,0Z"/><path class="cls-4" d="M390.67,79.89H394a13.3,13.3,0,0,0-1-1h-4.42l-14.63,0h-3.81q-.5.46-.93,1H376l14.63,0Z"/><path class="cls-2" d="M390.18,77.18h.45c-.42-.28-.86-.55-1.3-.81l-13.29,0h-2.41c-.43.26-.84.53-1.25.81h3.17l14.63,0Z"/><path class="cls-4" d="M389.33,76.37c-.55-.33-1.12-.65-1.7-1l-12.36,0c-.56.3-1.1.62-1.64,1H376l13.29,0Z"/><path class="cls-2" d="M377.78,66.59l9.17,0c.53-.27,1.05-.53,1.57-.81l-12.34,0c.53.28,1.06.55,1.6.81Z"/><path class="cls-4" d="M374.45,64.81c.57.34,1.15.66,1.73,1l12.34,0c.57-.31,1.12-.63,1.66-1h-1.6l-14.12,0Z"/><path class="cls-2" d="M376,62.25h-5.22c.32.29.66.55,1,.82h3.72l14.63,0h2.5c.32-.26.63-.53.94-.81h-2.95l-14.63,0Z"/><path class="cls-4" d="M374,61.29h-4.16c.33.33.67.65,1,1H376l14.63,0h2.95l.55-.52.4-.43h-6l-14.63,0Z"/><path class="cls-2" d="M390.67,58.76l-14.63,0h-7.89a1,1,0,0,1-.35-.1v.05l0,.07c.15.27.32.53.49.79h7.22l14.63,0h5.67l.1-.17a2.46,2.46,0,0,0,.07-.46,1.09,1.09,0,0,0,0-.18Z"/><path class="cls-4" d="M374,57.77q-3.09,0-6.19,0h0c0,.16,0,.33,0,.49l0,.34a1.08,1.08,0,0,0,.35.11H376l14.63,0H396c0-.11,0-.21,0-.32s0-.42,0-.64h-7.43l-14.63,0Z"/><path class="cls-2" d="M390.67,55.23l-14.63,0h-7.88q-.12.39-.21.81h7.6l14.63,0h5.5q-.12-.42-.27-.81Z"/><path class="cls-4" d="M374,54.24h-5.42c-.14.31-.26.63-.37.95l7.88,0,14.63,0c1.57,0,3.15,0,4.74,0a9.12,9.12,0,0,0-.45-.95h-6.38l-14.63,0Z"/><path class="cls-2" d="M376,51.69H370.2c-.23.26-.44.53-.65.81h6l14.63,0h3.61c-.23-.27-.46-.54-.71-.81h-2.41l-14.63,0Z"/><path class="cls-4" d="M374,50.72h-2.84a11.63,11.63,0,0,0-.91,1H376l14.63,0h2.41c-.32-.33-.65-.65-1-1h-3.5l-14.63,0Z"/><path class="cls-2" d="M374.52,48.16c-.42.26-.84.53-1.24.81h2.27l14.2,0c-.43-.28-.87-.55-1.31-.81l-12.4,0Z"/><path class="cls-4" d="M374.52,48.16H376l12.4,0c-.57-.33-1.15-.65-1.73-1l-10.51,0q-.85.45-1.68,1Z"/><path class="cls-2" d="M387.66,37.61l-10.66,0c.55.28,1.11.55,1.68.82H386c.56-.26,1.12-.53,1.66-.81Z"/><path class="cls-4" d="M389.44,36.65H389l-13.81,0c.6.33,1.21.65,1.82,1l10.66,0c.6-.31,1.19-.63,1.78-1Z"/><path class="cls-2" d="M390.18,34.91h1.34c.33-.26.65-.53,1-.81h-1.8l-14.63,0h-4.1c.33.28.67.55,1,.82h2.59l14.63,0Z"/><path class="cls-4" d="M390.67,34.1h1.81c.33-.31.64-.63.94-1h-4.84l-14.63,0H370.9c.33.33.68.65,1,1H376l14.63,0Z"/><path class="cls-2" d="M390.18,31.38c1.51,0,3,0,4.55,0q.24-.39.45-.81h-4.51l-14.63,0-7.16,0c.16.28.34.55.53.82h6.14l14.63,0Z"/><path class="cls-4" d="M376,30.54l14.63,0h4.51c.15-.31.27-.63.39-.95h-7l-14.63,0H368.4a9.4,9.4,0,0,0,.48,1Z"/><path class="cls-2" d="M394.62,27.23h0a.15.15,0,0,0,0,.06,9.42,9.42,0,0,1-.42,2.7,9.94,9.94,0,0,1-.35,1c-.12.27-.26.54-.4.81a11.42,11.42,0,0,1-1.18,1.75c-.27.33-.55.65-.85,1s-.56.55-.85.81a19.81,19.81,0,0,1-1.92,1.5l-.36.25c-.5.33-1,.65-1.5.95s-.93.55-1.4.81c-1,.57-2.06,1.11-3.11,1.63l-1.11.55a60.08,60.08,0,0,1-7.49-4.35c-3.2-2.3-5.94-5.43-6.07-9.47-.12.33-.21.67-.31,1a8.48,8.48,0,0,0-.53,2.11c0,3.77,2.13,6.76,5,9a39.11,39.11,0,0,0,5.62,3.6h0l-.57.3c-3.47,1.85-7.28,4.11-9.09,7.82a9.6,9.6,0,0,0-.93,4.19,10.42,10.42,0,0,0,.11,1.48,26.06,26.06,0,0,0,1.27,4.93,10.91,10.91,0,0,0,1.27,2.53c2.11,3.16,5.57,5.2,8.86,7a29,29,0,0,0-7.15,4.8,11.71,11.71,0,0,0-3.05,4.7,20.21,20.21,0,0,0-1.31,6.24,10.21,10.21,0,0,0,.14,1.65c.72,4.07,4,6.87,7.23,9,1.06.67,2.14,1.29,3.24,1.89h0c-1.1.57-2.18,1.17-3.24,1.82-3.27,2-6.51,4.73-7.23,8.78a10.21,10.21,0,0,0-.14,1.65,20.46,20.46,0,0,0,1.31,6.27,12.1,12.1,0,0,0,3.05,4.77,29.88,29.88,0,0,0,7.15,5c-3.29,1.7-6.75,3.66-8.86,6.77a11.1,11.1,0,0,0-1.27,2.5,26,26,0,0,0-1.27,4.9,10.53,10.53,0,0,0-.11,1.48,9.72,9.72,0,0,0,.93,4.21c1.81,3.76,5.62,6.1,9.09,8l.57.31h0a39.15,39.15,0,0,0-5.62,3.47c-2.84,2.18-4.94,5.13-5,8.9a8.78,8.78,0,0,0,.53,2.12c.1.34.19.68.31,1,0,0,.07.26.09.22h0v0c0-4.19,2.77-7.26,6-9.49a59,59,0,0,1,7.49-4.19h0l.36.19c1.48.76,3,1.54,4.38,2.39.52.31,1,.63,1.54,1s.8.53,1.19.81h0a19.92,19.92,0,0,1,2.14,1.75c.33.31.65.63,1,1s.47.53.69.81a12.67,12.67,0,0,1,1.15,1.76c.16.31.31.63.44,1s.21.54.29.81a8.83,8.83,0,0,1,.41,2.43c.12-.34.22-.68.31-1a8.45,8.45,0,0,0,.53-2.12c0-3.77-2.12-6.76-5-9a40.32,40.32,0,0,0-5.62-3.6h0l.57-.3c3.48-1.84,7.28-4.1,9.09-7.82a9.57,9.57,0,0,0,.93-4.19,12.26,12.26,0,0,0-.1-1.48,26.28,26.28,0,0,0-1.28-4.93,10.91,10.91,0,0,0-1.27-2.53c-2.1-3.15-5.57-5.2-8.86-7h0a29.09,29.09,0,0,0,7.15-4.8,11.71,11.71,0,0,0,3.05-4.71,19.87,19.87,0,0,0,1.31-6.24,9.19,9.19,0,0,0-.14-1.65c-.72-4.06-4-6.86-7.23-8.94-1.06-.68-2.14-1.3-3.23-1.9h0c1.09-.57,2.17-1.17,3.23-1.81,3.28-2,6.51-4.74,7.23-8.79a9.19,9.19,0,0,0,.14-1.65,20,20,0,0,0-1.31-6.26,12,12,0,0,0-3.05-4.78,30,30,0,0,0-7.15-5l-1.13.58c-.58.3-1.17.58-1.75.87l.36.19c1.86.95,3.74,1.91,5.53,3,.52.31,1,.63,1.54,1s.78.53,1.16.81.82.62,1.21.94.63.54.92.82a12,12,0,0,1,.93,1c.23.26.46.53.67.81a11.21,11.21,0,0,1,1.08,1.76l0,0,0,.63v.29c0,.27,0,.54,0,.81a8.68,8.68,0,0,1-.33,1.76l0,.12a7.39,7.39,0,0,1-.29.83,7.49,7.49,0,0,1-.38.81,10.19,10.19,0,0,1-1.14,1.76,12.54,12.54,0,0,1-.84,1c-.27.28-.56.55-.85.81a24.17,24.17,0,0,1-2.28,1.75c-.5.33-1,.65-1.51.95l-.8.47-.61.34c-1.07.59-2.15,1.16-3.24,1.7l-1.11.56h0c-1.68-.87-3.35-1.74-5-2.71-3.32-2-6.94-4.57-8.1-8.52a9.86,9.86,0,0,1-.39-3q0-.32,0-.63a13,13,0,0,1,3.61-4.3,52.26,52.26,0,0,1,9.81-5.67c.58-.29,1.17-.57,1.75-.87l1.14-.58c3.28-1.69,6.75-3.66,8.85-6.77a10.7,10.7,0,0,0,1.27-2.5,25.79,25.79,0,0,0,1.28-4.9,10.41,10.41,0,0,0,.1-1.48,9.72,9.72,0,0,0-.93-4.21c-1.81-3.75-5.61-6.1-9.09-8L385,43h0a37.82,37.82,0,0,0,5.62-3.48c2.85-2.18,4.95-5.12,5-8.9a8.59,8.59,0,0,0-.53-2.11c-.09-.34-.19-.69-.31-1l1.48-.36s-.06-.23-.09-.22l-1.48.36ZM381.16,129.07l.36.19.72.37c1.55.8,3.14,1.61,4.68,2.52q.79.45,1.56,1c.4.26.8.53,1.18.81a21.17,21.17,0,0,1,2.13,1.76,12.18,12.18,0,0,1,.94,1l.2.22c.17.19.33.39.48.59a10.61,10.61,0,0,1,1.1,1.76l0,0,0,.07,0,.4c0,.14,0,.29,0,.44v.05c0,.25,0,.51,0,.76a9.56,9.56,0,0,1-.32,1.76c-.09.32-.2.64-.32,1s-.23.55-.36.81-.28.53-.43.79-.44.65-.68,1a12.29,12.29,0,0,1-.81.95c-.26.29-.54.55-.82.82a18.92,18.92,0,0,1-2.22,1.74q-.74.51-1.5,1c-.46.28-.94.55-1.41.81-.78.43-1.56.83-2.32,1.22l-1.12.56-1.11.56h0c-.75-.39-1.5-.77-2.24-1.17-3.56-1.91-7.56-4.1-9.75-7.69a9.81,9.81,0,0,1-1.47-5.1c0-.16,0-.33,0-.49a2.67,2.67,0,0,1,.07-.47,10.83,10.83,0,0,1,1.6-2.35c2.86-3.21,6.93-5.13,10.69-7l1.09-.54,1.18-.58-1.18.58Zm.36-27.57c1.52.79,3,1.59,4.5,2.46l.1.06c.48.28,1,.59,1.46.9s.8.53,1.19.82a22.62,22.62,0,0,1,2.16,1.75c.32.31.64.63.93,1a10.28,10.28,0,0,1,.67.81,11,11,0,0,1,1.09,1.76,10.2,10.2,0,0,1,.4,1,5.1,5.1,0,0,1,.19.55c0,.09.05.17.07.25a9.37,9.37,0,0,1,.29,1.76c0,.3,0,.62,0,1v0c0,.21,0,.42,0,.64a1.09,1.09,0,0,1-.08.15,11.21,11.21,0,0,1-1.13,1.76,12.54,12.54,0,0,1-.83,1q-.4.42-.84.81c-.24.21-.48.42-.73.62-.49.4-1,.77-1.53,1.13s-1,.65-1.47,1-.91.55-1.38.81c-1.41.79-2.85,1.51-4.3,2.22l-1.12.55h0a53.28,53.28,0,0,1-9.81-5.89,13.28,13.28,0,0,1-3.61-4.37c0-.21,0-.43,0-.64V115a9.63,9.63,0,0,1,.4-2.72c1.16-3.92,4.78-6.43,8.09-8.34,1.62-.93,3.29-1.76,5-2.59h0l.36.19Zm0-56.45,1.87,1c.93.5,1.88,1,2.83,1.57.53.31,1,.63,1.56,1s.79.53,1.18.81a18.53,18.53,0,0,1,2.09,1.76q.46.45.9,1c.22.26.44.53.64.81a9.84,9.84,0,0,1,.56.82,10.36,10.36,0,0,1,.5.93c.15.32.28.63.4,1s.17.53.24.81a8.64,8.64,0,0,1,.3,1.76c0,.21,0,.42,0,.64s0,.21,0,.31v.18a3.75,3.75,0,0,1-.06.47l-.09.16a10.93,10.93,0,0,1-1.16,1.76l-.36.43-.49.53c-.28.28-.56.54-.85.81a22,22,0,0,1-2.24,1.74q-.74.51-1.5,1c-.46.28-.94.55-1.41.81-1.38.75-2.79,1.44-4.17,2.12l0,0-1.08.53h0l-1.09-.55c-3.76-2-7.83-4-10.69-7.23a11.61,11.61,0,0,1-1.6-2.39.3.3,0,0,1,0-.08l0-.39c0-.17,0-.33,0-.49a9.65,9.65,0,0,1,1.47-5.07c2.19-3.54,6.19-5.65,9.75-7.48.74-.38,1.49-.75,2.24-1.11h0l.36.19Z"/><path class="cls-4" d="M369.18,171.07a9.64,9.64,0,0,1,.23-2q.09-.41.21-.81c.11-.32.23-.64.36-1a10.87,10.87,0,0,1,1-1.76c.19-.28.4-.54.62-.81s.56-.65.86-.95a17.63,17.63,0,0,1,2-1.75l.69-.5.47-.31q.74-.5,1.5-1c1.43-.86,2.91-1.62,4.4-2.37l-.36-.19h0a59,59,0,0,0-7.49,4.19c-3.2,2.23-5.94,5.3-6,9.49v0h0l1.48-.36s0,0,0-.06Z"/><path class="cls-4" d="M382.28,125.57c-1.43-.72-2.85-1.46-4.25-2.24-.47-.26-.94-.53-1.4-.81s-1-.63-1.52-1a26.76,26.76,0,0,1-2.28-1.68l-.08-.07c-.31-.26-.62-.53-.91-.81s-.62-.63-.91-1a11.7,11.7,0,0,1-1.29-1.76q-.22-.37-.42-.78a.61.61,0,0,1,0-.14l0-.49v-.35a10.41,10.41,0,0,1,.19-1.76c.06-.28.12-.55.2-.82a.43.43,0,0,0,0-.05,8.7,8.7,0,0,1,.32-.9,10.14,10.14,0,0,1,.94-1.75,9.53,9.53,0,0,1,.61-.81,9.72,9.72,0,0,1,.85-1,17.86,17.86,0,0,1,2-1.75c.38-.28.76-.55,1.15-.81s1-.65,1.52-1l.68-.4c1.26-.72,2.55-1.39,3.85-2l-.36-.19h0c-1.68.83-3.35,1.66-5,2.59-3.31,1.91-6.93,4.42-8.09,8.34a9.63,9.63,0,0,0-.4,2.72,2.26,2.26,0,0,0,0,.26c0,.21,0,.43,0,.64a13.28,13.28,0,0,0,3.61,4.37,53.28,53.28,0,0,0,9.81,5.89h0l1.12-.55Z"/><path class="cls-4" d="M380.4,152.34l-1.51-.82-1.43-.82c-.52-.31-1-.63-1.55-1a22.47,22.47,0,0,1-2.35-1.76c-.3-.26-.6-.53-.89-.81s-.6-.63-.88-1a11,11,0,0,1-1.14-1.57l-.11-.18c-.15-.27-.3-.54-.43-.82s-.27-.63-.39-.95a10.51,10.51,0,0,1-.43-1.76,7.16,7.16,0,0,1-.09-.92c0-.16,0-.31,0-.47s0-.25,0-.37v-.12a2.46,2.46,0,0,1,.07-.46,9.84,9.84,0,0,1,.69-1.18,9.53,9.53,0,0,1,.61-.81l.3-.37c.18-.2.37-.4.56-.59a18.56,18.56,0,0,1,2-1.75c.36-.28.74-.55,1.12-.81s1-.65,1.51-1c1.78-1.06,3.66-2,5.47-2.87l-.36-.19,1.18-.58-1.18.58-1.09.54c-3.76,1.86-7.83,3.78-10.69,7a10.83,10.83,0,0,0-1.6,2.35,2.67,2.67,0,0,0-.07.47c0,.16,0,.33,0,.49a9.81,9.81,0,0,0,1.47,5.1c2.19,3.59,6.19,5.78,9.75,7.69.74.4,1.49.78,2.24,1.17h0l1.11-.56-1.87-1Z"/><path class="cls-4" d="M382.24,69.12l0,0-.72-.37c-1.11-.57-2.24-1.15-3.36-1.77-.48-.26-1-.53-1.43-.81s-1.05-.63-1.56-1a27.28,27.28,0,0,1-2.36-1.76c-.31-.26-.61-.53-.91-.81s-.63-.63-.92-1l-.15-.16a11.45,11.45,0,0,1-1.16-1.6,8.78,8.78,0,0,1-.44-.79.25.25,0,0,1,0-.07v0l0-.35c0-.16,0-.32,0-.49h0a9.38,9.38,0,0,1,.18-1.76,7.33,7.33,0,0,1,.19-.81,7.61,7.61,0,0,1,.33-1,8.77,8.77,0,0,1,.77-1.53,1.82,1.82,0,0,1,.15-.23,9.19,9.19,0,0,1,.58-.81,12.25,12.25,0,0,1,.82-1,16.32,16.32,0,0,1,1.95-1.75c.36-.28.73-.55,1.12-.81s1-.65,1.51-1c1.2-.71,2.43-1.35,3.62-2l1.12-.56-.36-.2h0c-.75.36-1.5.73-2.24,1.11-3.56,1.83-7.56,3.93-9.75,7.48a9.65,9.65,0,0,0-1.47,5.07c0,.16,0,.32,0,.49l0,.39a.3.3,0,0,0,0,.08,11.61,11.61,0,0,0,1.6,2.39c2.86,3.27,6.93,5.27,10.69,7.23l1.09.55h0l1.08-.53Z"/><path class="cls-4" d="M379.2,38.79c-.47-.27-.95-.54-1.41-.82s-1-.63-1.54-1l-1.1-.75c-.44-.32-.87-.66-1.29-1s-.62-.53-.92-.81-.64-.63-.93-1a12.58,12.58,0,0,1-1.34-1.76q-.26-.39-.48-.81c-.16-.31-.3-.63-.43-.95a9.26,9.26,0,0,1-.68-3.17l-1.48.36c.13,4,2.87,7.17,6.07,9.47A58.86,58.86,0,0,0,381.16,41l1.11-.55c-1-.53-2.06-1.07-3.07-1.63Z"/><path class="cls-4" d="M395,28.47a8.59,8.59,0,0,1,.53,2.11c0,3.78-2.12,6.73-5,8.91A38.61,38.61,0,0,1,385,43h0l.57.31c3.47,1.93,7.28,4.27,9.09,8a9.75,9.75,0,0,1,.93,4.21,10.32,10.32,0,0,1-.1,1.48,25.88,25.88,0,0,1-1.28,4.91,10.44,10.44,0,0,1-1.27,2.49c-2.1,3.11-5.57,5.08-8.86,6.77l-1.13.58-1.75.88a51.19,51.19,0,0,0-9.81,5.67,12.9,12.9,0,0,0-3.61,4.29c0,.21,0,.43,0,.64a10,10,0,0,0,.39,3c1.16,4,4.78,6.53,8.09,8.51,1.62,1,3.29,1.84,5,2.71h0l1.11-.56c-1.07-.55-2.14-1.12-3.2-1.71l-1.4-.8h0c-.51-.31-1-.63-1.55-1a23.57,23.57,0,0,1-2.39-1.75q-.48-.39-.93-.81c-.32-.31-.63-.63-.92-1a13,13,0,0,1-1.29-1.76,7.89,7.89,0,0,1-.44-.81,8.62,8.62,0,0,1-.39-1c-.06-.17-.12-.33-.17-.5a9.47,9.47,0,0,1-.28-1.27c0-.29-.07-.59-.09-.91a7.18,7.18,0,0,1,0-.81v0c0-.19,0-.39,0-.59a10.4,10.4,0,0,1,.67-1.17q.28-.42.6-.81a12.54,12.54,0,0,1,.83-1,17.77,17.77,0,0,1,1.51-1.37l.51-.38c.37-.28.74-.55,1.12-.81s1-.65,1.48-1c1.8-1.09,3.69-2,5.58-3l-.36-.18,1.75-.88,1.13-.58a30,30,0,0,1,7.15,5,12,12,0,0,1,3.05,4.78,20,20,0,0,1,1.31,6.26,9.11,9.11,0,0,1-.14,1.65c-.72,4-4,6.78-7.23,8.79-1.06.65-2.14,1.24-3.23,1.82h0c1.09.59,2.17,1.22,3.23,1.89,3.27,2.08,6.51,4.88,7.23,8.94a10.33,10.33,0,0,1,.14,1.66,19.81,19.81,0,0,1-1.31,6.23,11.64,11.64,0,0,1-3.05,4.71,28.82,28.82,0,0,1-7.15,4.8h0c3.29,1.77,6.75,3.81,8.86,7a10.84,10.84,0,0,1,1.27,2.52,26.48,26.48,0,0,1,1.28,4.93,12.29,12.29,0,0,1,.1,1.49,9.64,9.64,0,0,1-.93,4.19c-1.81,3.71-5.62,6-9.09,7.82l-.57.3h0a39.36,39.36,0,0,1,5.62,3.59c2.85,2.25,4.95,5.24,5,9a8.45,8.45,0,0,1-.53,2.12c-.09.34-.19.68-.31,1l1.48-.37c.12-.33.22-.67.31-1a8.48,8.48,0,0,0,.53-2.11c0-3.77-2.12-6.76-5-9a39.42,39.42,0,0,0-5.62-3.6l.57-.3c3.47-1.85,7.28-4.1,9.09-7.82a9.57,9.57,0,0,0,.93-4.19,12.26,12.26,0,0,0-.1-1.48,26.28,26.28,0,0,0-1.28-4.93,10.91,10.91,0,0,0-1.27-2.53c-2.11-3.15-5.57-5.2-8.86-7h0a29.09,29.09,0,0,0,7.15-4.8,11.71,11.71,0,0,0,3.05-4.71,19.87,19.87,0,0,0,1.31-6.24,10.21,10.21,0,0,0-.14-1.65c-.72-4.07-4-6.86-7.23-8.95-1.06-.67-2.14-1.29-3.23-1.89,1.09-.57,2.17-1.17,3.23-1.82,3.27-2,6.51-4.73,7.23-8.78a9.19,9.19,0,0,0,.14-1.65,20.17,20.17,0,0,0-1.31-6.27,12,12,0,0,0-3.05-4.77,30,30,0,0,0-7.15-5h0c3.29-1.69,6.76-3.66,8.86-6.77a10.7,10.7,0,0,0,1.27-2.5,25.79,25.79,0,0,0,1.28-4.9,12.13,12.13,0,0,0,.1-1.48,9.72,9.72,0,0,0-.93-4.21c-1.81-3.76-5.62-6.1-9.09-8l-.57-.32a37.76,37.76,0,0,0,5.62-3.47c2.85-2.18,4.95-5.12,5-8.9a8.59,8.59,0,0,0-.53-2.11c-.09-.35-.19-.69-.31-1l-1.48.36c.12.34.22.68.31,1Z"/><path class="cls-2" d="M314.17,31c1.55.65,2.6,1.19,3.75,1.67a27.39,27.39,0,0,1,4.5,2.25l3.75,2.25,6.41,5,4.87,5.92,6.12,8.81L347.91,67,350,78.94V84.7l-.44,3.52-.73,3.92-1.11,4.09-1.46,4-.88,2.78-.44,2.8.14,3.14.53,2.12.56,1.4,1.48,2.54,1.41,1.76,2.05,2.25,1.18,1.66,1.18,2.79.13,1.49-.21,1.27-.6,1.45-1,1.44-1.64,1.64-1.27,1.36-.38,1,.09.89.84,1.39.53.79.46,1.73-.36.77-1,1-.83,1.38-.71,2.18-.49,2.63-.59,2.64-.76,1.8-1.18,1.47-.7.55-1.14,1.81,0,3.69.28,2,.14,2.25-.22,2-.74,2-1.4,1.73-1.66,1-1.46.53-2.33.41-3.55.4-3.19.19-2.9.18-23.21-.16H246V28.34l58.46.4S308.32,28.55,314.17,31Z"/><path class="cls-1" d="M256.83,159.37h30.83c33.74,0,50.34-26,50.34-60.6,0-30.8-15-59.4-50.34-59.4H256.83Z"/></svg>