<svg xmlns="http://www.w3.org/2000/svg" viewBox="0 0 125.07 35"><defs><style>.cls-1{fill:#c5892b;}.cls-2{fill:#679a40;}.cls-3{fill:#009494;}.cls-4{fill:#4a60ab;}.cls-5{fill:#8b4168;}.cls-6{fill:#cb5027;}.cls-7{fill:#679940;}.cls-8{fill:#4a5faa;}</style></defs><title>fdna_logo</title><g id="Layer_2" data-name="Layer 2"><g id="Layer_10" data-name="Layer 10"><rect class="cls-1" x="58.81" y="16.16" width="6.77" height="4.74"/><path class="cls-2" d="M58.81,33.26c0,.82.34,1.16,1.16,1.16h4.4c.87,0,1.21-.34,1.21-1.16V27.87H58.81Z"/><path d="M80.57,21,62.19,1.55C61.08.44,60.5,0,59.87,0s-1.06.58-1.06,1.74V14h6.76L84,33.45C85.1,34.56,85.68,35,86.26,35c.77,0,1.11-.58,1.11-1.74V21Z"/><path class="cls-3" d="M87.38,1.74C87.38.92,87,.58,86.17.58h-4.4c-.82,0-1.16.34-1.16,1.16v2.7h6.77Z"/><polygon class="cls-4" points="80.61 12.35 80.61 16.65 80.61 18.8 87.38 18.8 87.38 16.65 87.38 12.35 80.61 12.35"/><rect class="cls-5" x="58.81" y="23.1" width="6.77" height="2.58"/><rect class="cls-6" x="80.61" y="6.63" width="6.77" height="3.53"/><polygon points="107.32 12.66 107.32 12.66 114.57 12.66 112.65 8.79 102.26 8.79 98.22 17.04 105.27 17.04 107.32 12.66"/><polygon class="cls-1" points="104.24 19.23 97.14 19.23 95.77 22.05 102.93 22.05 104.24 19.23"/><polygon class="cls-6" points="110.73 19.86 118.11 19.86 115.65 14.85 108.36 14.85 110.73 19.86"/><path d="M94.69,24.24l-4.53,9.25a2.47,2.47,0,0,0-.24.83c0,.49.39.68,1.08.68h4.35c1.17,0,1.61-.29,2.2-1.52l1.36-2.89h16.92l1.37,2.89c.59,1.22,1,1.52,2.15,1.52H124c.68,0,1.08-.2,1.08-.68a2.2,2.2,0,0,0-.24-.83L119.18,22h-7.41l1,2.19Z"/><path class="cls-7" d="M109.52,2.44C108.59.54,108.2,0,107.47,0s-1.17.54-2.1,2.44l-2,4.15h8.24Z"/><path class="cls-5" d="M0,33.8C0,34.65.35,35,1.2,35H5.75C6.65,35,7,34.65,7,33.8V31.31H0Z"/><polygon class="cls-3" points="0 15.19 7 15.19 7 14.5 7 11.39 0 11.39 0 15.19"/><path d="M21.45,0H1.2C.35,0,0,.35,0,1.2v8H7V7.15c0-.45.15-.65.65-.65h13.8c.9,0,1.25-.3,1.25-1.2V1.2C22.7.35,22.35,0,21.45,0Z"/><path d="M18.53,17.38H0V29.12H7V24.31c0-.3.19-.44.56-.44H18.44c.81,0,1.12-.35,1.12-1.2v-4C19.57,17.76,19.27,17.41,18.53,17.38Z"/><rect class="cls-6" x="25.82" y="11.4" width="7" height="3.8"/><path d="M32.82,7.15c0-.45.15-.65.65-.65h4.4c7.46,0,10.64,3.79,11,9.66h6.56C55.14,6.34,50.1,0,38.47,0H27c-.85,0-1.2.35-1.2,1.2v8h7Z"/><rect class="cls-2" x="25.82" y="17.38" width="7" height="6.51"/><path d="M37.67,28.5h-4.2c-.5,0-.65-.2-.65-.65V26.08h-7V33.8c0,.85.35,1.2,1.2,1.2H37.67c8.56,0,13.75-3.31,16.16-8.92H45.75C43.95,27.65,41.32,28.5,37.67,28.5Z"/><path class="cls-8" d="M48.89,18.35a12.64,12.64,0,0,1-1.38,5.54h7.08a24,24,0,0,0,.82-5.54Z"/></g></g></svg>